<?xml version="1.0" encoding="utf-8"?>
<svg width="1902px" height="900px" viewBox="0 0 1902 900" version="1.1" xmlns:xlink="http://www.w3.org/1999/xlink" xmlns="http://www.w3.org/2000/svg">
  <defs>
    <linearGradient gradientUnits="userSpaceOnUse" x1="0" y1="900" x2="1902" y2="0" id="gradient_1">
      <stop offset="0%" stop-color="#646464" />
      <stop offset="100%" stop-color="#D3D3D3" />
    </linearGradient>
    <linearGradient gradientUnits="userSpaceOnUse" x1="-3.1808095" y1="364.4613" x2="370.8789" y2="3.2368503" id="gradient_2">
      <stop offset="49.382717%" stop-color="#000000" />
      <stop offset="100%" stop-color="#616161" />
    </linearGradient>
    <path d="M925.31 451.551L1325.31 451.551L1325.31 445.551L925.31 445.551L925.31 451.551Z" id="path_1" />
    <rect width="1902" height="900" id="artboard_1" />
    <clipPath id="clip_1">
      <use xlink:href="#artboard_1" clip-rule="evenodd" />
    </clipPath>
    <clipPath id="clip_2">
      <use xlink:href="#path_1" />
    </clipPath>
  </defs>
  <g id="Artboard" clip-path="url(#clip_1)">
    <use xlink:href="#artboard_1" stroke="none" fill="#FFFFFF" />
    <g id="Group" artboard="6b78b40a-2fe0-4303-815b-f1b32fea5553">
      <path d="M0 0L1902 0L1902 900L0 900L0 0Z" id="Rectangle-4" fill="url(#gradient_1)" fill-rule="evenodd" stroke="none" />
      <path d="M638.761 633.851C537.24 632.079 456.377 548.342 458.149 446.821C459.921 345.299 543.657 264.437 645.179 266.209C746.701 267.981 827.563 351.717 825.791 453.239C824.019 554.76 740.283 635.623 638.761 633.851Z" id="Oval" fill="url(#gradient_2)" fill-rule="evenodd" stroke="none" />
      <path d="M591.839 450.043C591.839 422.698 614.007 400.53 641.353 400.53C668.698 400.53 690.866 422.698 690.866 450.043C690.866 477.389 668.698 499.557 641.353 499.557C614.007 499.557 591.839 477.389 591.839 450.043Z" id="Oval-2" fill="#C92727" fill-rule="evenodd" stroke="none" />
      <path d="M635.361 449.728C635.361 446.593 637.902 444.051 641.037 444.051C644.173 444.051 646.714 446.593 646.714 449.728C646.714 452.863 644.173 455.405 641.037 455.405C637.902 455.405 635.361 452.863 635.361 449.728Z" id="Oval-3" fill="#FFFFFF" fill-rule="evenodd" stroke="none" />
      <path d="M620.689 547.493L668.159 547.493L668.159 543.552L619.907 543.552L620.689 547.493Z" id="Line" fill="#FFFFFF" fill-rule="evenodd" stroke="none" />
      <path d="M609.882 542.31L632.626 542.31L632.626 548.618L609.882 548.618L609.882 542.31Z" id="Rectangle-2" fill="#C92727" fill-rule="evenodd" stroke="none" />
    </g>
    <path d="M826.32 438.287L826.32 441.383L670 547.5L668 543.501L826.32 438.287Z" id="Rectangle" fill="#FFFFFF" fill-rule="evenodd" stroke="none" artboard="fe3d7646-9771-4571-9098-58d112fdc1a1" />
    <g id="shurebert" transform="translate(923.3762 343.00003)" artboard="fdebb923-3250-49f4-851a-ae1b4ccafc4f">
      <path d="M60.875 56.125L56.125 85L48.75 85L59.375 21L66.75 21L62.875 44.5L63.5 44.5Q65.75 40.75 69.5156 38.5625Q73.2813 36.375 79 36.375Q86.3125 36.375 90.0938 40.7969Q93.875 45.2188 92.375 54.5L87.25 85L79.875 85L84.875 55Q85.8125 49.2813 83.3594 46.1406Q80.9063 43 75.75 43Q70.3125 43 66.1563 46.4219Q62 49.8438 60.875 56.125ZM237.125 85L247.75 21L255.125 21L251.25 44.625L251.875 44.625Q252.875 43.375 254.656 41.4219Q256.438 39.4688 259.438 37.9219Q262.438 36.375 267.125 36.375Q273.188 36.375 277.297 39.4063Q281.406 42.4375 283.078 48Q284.75 53.5625 283.5 61.125Q282.25 68.75 278.734 74.3281Q275.219 79.9063 270.109 82.9531Q265 86 259 86Q254.375 86 251.859 84.4531Q249.344 82.9063 248.172 80.9219Q247 78.9375 246.375 77.625L245.5 77.625L244.25 85L237.125 85ZM402.875 43.25L403.875 37L393.594 37L395.5 25.5L388.125 25.5L386.219 37L379 37L378 43.25L385.188 43.25L380.25 73.25Q379.563 77.4375 381.031 80.1875Q382.5 82.9375 385.25 84.2813Q388 85.625 391.125 85.625Q393.188 85.625 394.609 85.3281Q396.031 85.0313 396.875 84.75L396.375 78.125Q395.906 78.2188 395.125 78.3594Q394.344 78.5 393.125 78.5Q391.5 78.5 390.109 77.9844Q388.719 77.4688 388.047 75.9219Q387.375 74.375 387.875 71.25L392.531 43.25L402.875 43.25ZM151.875 85L159.875 37L167 37L165.75 44.25L166.25 44.25Q168.125 40.6875 171.969 38.4687Q175.813 36.25 180.125 36.25Q180.969 36.25 182.156 36.2656Q183.344 36.2812 184 36.375L182.75 43.875Q182.375 43.7813 181.063 43.5781Q179.75 43.375 178.25 43.375Q173 43.375 169.047 46.5625Q165.094 49.75 164.25 54.625L159.25 85L151.875 85ZM350.125 37L357.25 37L356 44.25L356.5 44.25Q358.375 40.6875 362.219 38.4687Q366.063 36.25 370.375 36.25Q371.219 36.25 372.406 36.2656Q373.594 36.2812 374.25 36.375L373 43.875Q372.625 43.7813 371.313 43.5781Q370 43.375 368.5 43.375Q363.25 43.375 359.297 46.5625Q355.344 49.75 354.5 54.625L349.5 85L342.125 85L350.125 37ZM43 47.75L36 49.625Q35.625 47.9375 34.7031 46.3594Q33.7812 44.7813 31.8906 43.7656Q30 42.75 26.75 42.75Q22.3438 42.75 19.0938 44.7656Q15.8438 46.7813 15.375 49.875Q14.9062 52.5938 16.625 54.2188Q18.3437 55.8438 22.375 56.875L29.25 58.625Q41.5 61.7813 39.875 71.625Q39.1875 75.75 36.2813 79Q33.375 82.25 28.8438 84.125Q24.3125 86 18.75 86Q11.3437 86 7.0625 82.7969Q2.78125 79.5938 2.5 73.5L9.875 71.75Q10.4375 79.5 19.625 79.5Q24.7813 79.5 28.2188 77.2969Q31.6563 75.0938 32.125 72Q33.0625 66.9063 26.125 65.25L18.5 63.375Q12.125 61.7813 9.57813 58.5Q7.03125 55.2188 7.875 50.25Q8.5625 46.1875 11.3906 43.0625Q14.2188 39.9375 18.5156 38.1562Q22.8125 36.375 27.875 36.375Q35 36.375 38.5313 39.4844Q42.0625 42.5938 43 47.75ZM193.344 82.9219Q197.844 86 204.75 86Q212.094 86 217.688 82.6563Q223.281 79.3125 225.875 73.875L219.125 71.875Q217.094 75.625 213.703 77.5Q210.313 79.375 205.875 79.375Q198.938 79.375 195.531 75.8438Q192.125 72.3125 193.469 63.5L228.375 63.5L228.875 60.375Q230 53.6563 229 49.0625Q228 44.4688 225.469 41.6719Q222.938 38.875 219.469 37.625Q216 36.375 212.25 36.375Q205.781 36.375 200.375 39.5469Q194.969 42.7188 191.344 48.3594Q187.719 54 186.5 61.375Q185.281 68.75 187.063 74.2969Q188.844 79.8438 193.344 82.9219ZM299.344 82.9219Q303.844 86 310.75 86Q318.094 86 323.688 82.6563Q329.281 79.3125 331.875 73.875L325.125 71.875Q323.094 75.625 319.703 77.5Q316.313 79.375 311.875 79.375Q304.938 79.375 301.531 75.8438Q298.125 72.3125 299.469 63.5L334.375 63.5L334.875 60.375Q336 53.6563 335 49.0625Q334 44.4688 331.469 41.6719Q328.938 38.875 325.469 37.625Q322 36.375 318.25 36.375Q311.781 36.375 306.375 39.5469Q300.969 42.7188 297.344 48.3594Q293.719 54 292.5 61.375Q291.281 68.75 293.063 74.2969Q294.844 79.8438 299.344 82.9219ZM139 37L134.25 65.375Q133.5 69.875 131.078 72.7813Q128.656 75.6875 125.578 77.0938Q122.5 78.5 119.75 78.5Q115.156 78.5 112.719 75.375Q110.281 72.25 111.125 67L116.125 37L108.75 37L103.625 67.5Q102.125 76.6875 105.75 81.1563Q109.375 85.625 116.125 85.625Q121.563 85.625 125.594 83.0781Q129.625 80.5313 131.875 76.875L132.375 76.875L131 85L138.375 85L146.375 37L139 37ZM221.875 57.125L194.5 57.125Q195.219 53.7188 197.641 50.4687Q200.063 47.2188 203.578 45.1094Q207.094 43 211.125 43Q217.156 43 220.047 47.0156Q222.938 51.0313 221.875 57.125ZM248.375 61Q247.063 69.1563 249.766 74.2656Q252.469 79.375 259.125 79.375Q263.75 79.375 267.25 76.9219Q270.75 74.4688 273 70.2969Q275.25 66.125 276.125 61Q276.938 55.9375 276.078 51.8594Q275.219 47.7813 272.516 45.3906Q269.813 43 265.125 43Q258.375 43 254.031 47.9687Q249.688 52.9375 248.375 61ZM327.875 57.125L300.5 57.125Q301.219 53.7188 303.641 50.4687Q306.063 47.2188 309.578 45.1094Q313.094 43 317.125 43Q323.156 43 326.047 47.0156Q328.938 51.0313 327.875 57.125Z" />
    </g>
    <g id="DEY" transform="translate(920.1 426.51666)" artboard="df308957-4f02-4f27-b4d4-1f20fe730637">
      <path d="M10.083 120.849L10.083 36.0361L38.2002 36.0361Q83.2568 36.0361 83.2568 77.4053Q83.2568 97.1104 70.5522 108.979Q57.8477 120.849 37.8545 120.849L10.083 120.849ZM237.554 120.849L188.464 120.849L188.464 36.0361L235.653 36.0361L235.653 49.6914L204.885 49.6914L204.885 71.2979L233.463 71.2979L233.463 84.8955L204.885 84.8955L204.885 107.251L237.554 107.251L237.554 120.849ZM376.065 90.3691L403.836 36.0361L386.378 36.0361L370.706 69.7998Q369.496 72.5078 368.805 76.0801L368.574 76.0801Q366.961 70.4912 366.615 69.6846L351.462 36.0361L332.679 36.0361L359.644 90.7148L359.644 120.849L376.065 120.849L376.065 90.3691ZM26.5039 49.6914L26.5039 107.251L36.875 107.251Q50.5303 107.251 58.251 99.3286Q65.9717 91.4063 65.9717 77.6357Q65.9717 64.0957 58.251 56.8936Q50.5303 49.6914 36.9902 49.6914L26.5039 49.6914Z" />
    </g>
    <g id="Rectangle-3" artboard="5caa5be9-4c6b-441d-a2d3-413c224b31c2">
      <use stroke="none" fill="#000000" xlink:href="#path_1" fill-rule="evenodd" />
      <g clip-path="url(#clip_2)">
        <use xlink:href="#path_1" fill="none" stroke="#000000" stroke-width="22" />
      </g>
    </g>
  </g>
</svg>